<svg width="37" height="44" viewBox="0 0 37 44" fill="none" xmlns="http://www.w3.org/2000/svg">
<path d="M17.313 5.176L23.413 11.857H27.338L17.313 1L7.29102 11.857H10.632V21.044H23.991V15.2" stroke="white" stroke-width="2" stroke-miterlimit="10" stroke-linecap="round" stroke-linejoin="round"/>
<path d="M8.359 43.0439V34.3729H7.059V38.0129H2.262V34.3729H0.962V43.0439H2.262V39.1699H7.059V43.0439H8.359ZM14.2844 43.1999C16.8714 43.1999 18.6524 41.2889 18.6524 38.7149C18.6524 36.1409 16.8714 34.2299 14.2844 34.2299C11.6974 34.2299 9.91636 36.1409 9.91636 38.7149C9.91636 41.2889 11.6974 43.1999 14.2844 43.1999ZM14.2844 42.0429C12.4254 42.0429 11.2554 40.6129 11.2554 38.7149C11.2554 36.8039 12.4254 35.3869 14.2844 35.3869C16.1174 35.3869 17.3134 36.8039 17.3134 38.7149C17.3134 40.6129 16.1174 42.0429 14.2844 42.0429ZM28.9828 43.0439V34.3729H27.1238L24.6018 40.4959L22.0798 34.3729H20.2208V43.0439H21.5208V36.2579L24.3288 43.0439H24.8748L27.6828 36.2579V43.0439H28.9828ZM36.7342 43.0439V41.8999H32.2102V39.1959H36.6432V38.0519H32.2102V35.5169H36.7342V34.3729H30.9102V43.0439H36.7342Z" fill="white"/>
</svg>
